<svg width="24" height="25" viewBox="0 0 24 25" fill="none" xmlns="http://www.w3.org/2000/svg">
<path id="Vector" d="M11.25 18.9404H12.75V12.9404H18.75V11.4404H12.75V5.4404H11.25V11.4404H5.25V12.9404H11.25V18.9404ZM2.42306 24.1904C1.73269 24.1904 1.15625 23.9592 0.69375 23.4967C0.23125 23.0341 0 22.4577 0 21.7673V2.61346C0 1.92309 0.23125 1.34665 0.69375 0.884149C1.15625 0.421649 1.73269 0.190399 2.42306 0.190399H21.5769C22.2673 0.190399 22.8438 0.421649 23.3063 0.884149C23.7688 1.34665 24 1.92309 24 2.61346V21.7673C24 22.4577 23.7688 23.0341 23.3063 23.4967C22.8438 23.9592 22.2673 24.1904 21.5769 24.1904H2.42306Z" fill="black"/>
</svg>
