<svg width="12" height="13" viewBox="0 0 12 13" fill="none" xmlns="http://www.w3.org/2000/svg">
<path id="Vector" d="M0.738007 12.1756C0.51903 12.2198 0.332708 12.165 0.179038 12.0114C0.0253561 11.8577 -0.0293883 11.6714 0.0148053 11.4524L0.530328 8.95872L3.23167 11.6601L0.738007 12.1756ZM3.23167 11.6601L0.530328 8.95872L8.94662 0.542416C9.18131 0.307738 9.47148 0.190399 9.81712 0.190399C10.1628 0.190399 10.4529 0.307738 10.6876 0.542416L11.648 1.50277C11.8827 1.73746 12 2.02763 12 2.37328C12 2.71892 11.8827 3.00909 11.648 3.24378L3.23167 11.6601ZM9.49308 1.08446L1.75728 8.80554L3.38486 10.4331L11.1059 2.69732C11.1943 2.60894 11.2385 2.49847 11.2385 2.3659C11.2385 2.23335 11.1943 2.12288 11.1059 2.03451L10.1559 1.08446C10.0675 0.996085 9.95705 0.951897 9.8245 0.951897C9.69193 0.951897 9.58146 0.996085 9.49308 1.08446Z" fill="#505050"/>
</svg>
