<svg width="11" height="13" viewBox="0 0 11 13" fill="none" xmlns="http://www.w3.org/2000/svg">
<path id="Vector" d="M2.05494 12.3855C1.70338 12.3855 1.40395 12.2618 1.15665 12.0145C0.90936 11.7672 0.785714 11.4678 0.785714 11.1162V1.38546H0V0.59975H3.14286V-0.00466156H7.85714V0.59975H11V1.38546H10.2143V11.1162C10.2143 11.4779 10.0932 11.7798 9.85089 12.0221C9.60863 12.2643 9.30669 12.3855 8.94506 12.3855H2.05494ZM9.42857 1.38546H1.57143V11.1162C1.57143 11.2573 1.61676 11.3731 1.70742 11.4638C1.79807 11.5544 1.91391 11.5997 2.05494 11.5997H8.94506C9.06593 11.5997 9.17674 11.5494 9.27748 11.4487C9.37821 11.3479 9.42857 11.2371 9.42857 11.1162V1.38546ZM3.77746 10.0283H4.56319V2.95689H3.77746V10.0283ZM6.43681 10.0283H7.22254V2.95689H6.43681V10.0283Z" fill="#505050"/>
</svg>
