<svg width="17" height="17" viewBox="0 0 17 17" fill="none" xmlns="http://www.w3.org/2000/svg">
<path id="Vector" d="M6.54942 11.4616C4.95071 11.4616 3.5959 10.9061 2.485 9.7952C1.3741 8.6843 0.818649 7.32949 0.818649 5.73078C0.818649 4.13206 1.3741 2.77725 2.485 1.66635C3.5959 0.55545 4.95071 0 6.54942 0C8.14816 0 9.50297 0.55545 10.6138 1.66635C11.7247 2.77725 12.2802 4.13206 12.2802 5.73078C12.2802 6.42564 12.1571 7.09808 11.911 7.74808C11.6648 8.39808 11.3418 8.95385 10.9417 9.4154L16.8494 15.3231C16.943 15.4167 16.993 15.5314 16.9994 15.6673C17.0058 15.8032 16.9558 15.9244 16.8494 16.0308C16.743 16.1372 16.6251 16.1904 16.4956 16.1904C16.3661 16.1904 16.2481 16.1372 16.1417 16.0308L10.234 10.1231C9.73405 10.5487 9.15905 10.8782 8.50905 11.1116C7.85905 11.3449 7.20584 11.4616 6.54942 11.4616ZM6.54942 10.4616C7.87636 10.4616 8.99655 10.0048 9.91 9.09135C10.8235 8.17788 11.2802 7.05769 11.2802 5.73078C11.2802 4.40386 10.8235 3.28367 9.91 2.3702C8.99655 1.45673 7.87636 1 6.54942 1C5.22251 1 4.10232 1.45673 3.18885 2.3702C2.2754 3.28367 1.81867 4.40386 1.81867 5.73078C1.81867 7.05769 2.2754 8.17788 3.18885 9.09135C4.10232 10.0048 5.22251 10.4616 6.54942 10.4616Z" fill="black"/>
</svg>
